<svg data-logo="logo" xmlns="http://www.w3.org/2000/svg" viewBox="0 0 181 42">
        <g style="opacity: 1;" id="logogram" transform="translate(0, 1) rotate(0)"><path d="M33.724 36.5809C37.7426 32.5622 40.0003 27.1118 40.0003 21.4286C40.0003 15.7454 37.7426 10.2949 33.724 6.27629C29.7054 2.25765 24.2549 1.02188e-06 18.5717 0C12.8885 -1.02188e-06 7.43807 2.25764 3.41943 6.27628L10.4905 13.3473C11.6063 14.4631 13.4081 14.4074 14.8276 13.7181C15.9836 13.1568 17.2622 12.8571 18.5717 12.8571C20.845 12.8571 23.0252 13.7602 24.6326 15.3677C26.2401 16.9751 27.1431 19.1553 27.1431 21.4286C27.1431 22.7381 26.8435 24.0167 26.2822 25.1727C25.5929 26.5922 25.5372 28.394 26.6529 29.5098L33.724 36.5809Z" fill="#B10910"></path><path d="M30 40H19.5098C17.9943 40 16.5408 39.398 15.4692 38.3263L1.67368 24.5308C0.60204 23.4592 0 22.0057 0 20.4902V10L30 40Z" fill="#E9A747"></path><path d="M10.7143 39.9999H4.28571C1.91878 39.9999 0 38.0812 0 35.7142V29.2856L10.7143 39.9999Z" fill="#E9A747"></path></g>
        <g style="opacity: 1;" id="logotype" transform="translate(46, 8)"><path fill="#f4feff" d="M16.85 26.42L16.85 26.42Q14.19 26.42 12.11 25.51Q10.03 24.60 8.82 22.85Q7.61 21.10 7.58 18.61L7.58 18.61L12.58 18.61Q12.62 19.70 13.14 20.57Q13.67 21.45 14.59 21.96Q15.52 22.46 16.82 22.46L16.82 22.46Q17.94 22.46 18.76 22.10Q19.58 21.73 20.04 21.06Q20.49 20.40 20.49 19.49L20.49 19.49Q20.49 18.44 19.98 17.74Q19.48 17.04 18.58 16.55Q17.69 16.06 16.52 15.66Q15.35 15.25 14.05 14.80L14.05 14.80Q11.14 13.85 9.62 12.28Q8.10 10.70 8.10 8.11L8.10 8.11Q8.10 5.91 9.17 4.33Q10.23 2.76 12.13 1.92Q14.02 1.08 16.43 1.08L16.43 1.08Q18.91 1.08 20.79 1.94Q22.66 2.79 23.76 4.40Q24.87 6.01 24.90 8.18L24.90 8.18L19.86 8.18Q19.83 7.38 19.39 6.66Q18.95 5.94 18.18 5.51Q17.41 5.07 16.36 5.07L16.36 5.07Q15.45 5.03 14.70 5.35Q13.95 5.66 13.51 6.28Q13.07 6.89 13.07 7.80L13.07 7.80Q13.07 8.67 13.51 9.27Q13.95 9.86 14.72 10.30Q15.49 10.74 16.54 11.11Q17.59 11.47 18.81 11.86L18.81 11.86Q20.63 12.49 22.17 13.35Q23.71 14.20 24.62 15.57Q25.53 16.93 25.53 19.17L25.53 19.17Q25.53 21.10 24.52 22.75Q23.50 24.39 21.59 25.41Q19.69 26.42 16.85 26.42ZM45.03 26L39.15 26L31.62 16.34L38.38 8.36L43.94 8.36L35.23 18.34L35.23 14.59L45.03 26ZM32.32 26L27.59 26L27.59 0.80L32.32 0.80L32.32 26ZM52.97 26.42L52.97 26.42Q50.31 26.42 48.26 25.28Q46.22 24.14 45.08 22.10Q43.94 20.05 43.94 17.35L43.94 17.35Q43.94 14.59 45.08 12.47Q46.22 10.35 48.25 9.15Q50.28 7.94 52.97 7.94L52.97 7.94Q55.60 7.94 57.56 9.09Q59.52 10.25 60.60 12.21Q61.69 14.17 61.69 16.66L61.69 16.66Q61.69 17.00 61.69 17.44Q61.69 17.88 61.62 18.34L61.62 18.34L47.30 18.34L47.30 15.46L56.93 15.46Q56.82 13.75 55.72 12.77Q54.62 11.79 52.97 11.79L52.97 11.79Q51.78 11.79 50.77 12.33Q49.75 12.87 49.17 13.99Q48.60 15.11 48.60 16.83L48.60 16.83L48.60 17.84Q48.60 19.28 49.14 20.35Q49.68 21.41 50.66 21.99Q51.64 22.57 52.94 22.57L52.94 22.57Q54.23 22.57 55.09 22.01Q55.95 21.45 56.37 20.57L56.37 20.57L61.20 20.57Q60.71 22.22 59.55 23.55Q58.40 24.88 56.72 25.65Q55.04 26.42 52.97 26.42ZM74.60 26L71.42 26Q69.56 26 68.18 25.42Q66.80 24.84 66.03 23.50Q65.26 22.15 65.26 19.80L65.26 19.80L65.26 12.31L62.25 12.31L62.25 8.36L65.26 8.36L65.78 3.56L69.98 3.56L69.98 8.36L74.64 8.36L74.64 12.31L69.98 12.31L69.98 19.88Q69.98 21.06 70.51 21.52Q71.03 21.98 72.29 21.98L72.29 21.98L74.60 21.98L74.60 26ZM84.86 26.42L84.86 26.42Q82.20 26.42 80.13 25.23Q78.07 24.04 76.91 21.98Q75.76 19.91 75.76 17.25L75.76 17.25Q75.76 14.52 76.91 12.44Q78.07 10.35 80.13 9.15Q82.20 7.94 84.86 7.94L84.86 7.94Q88.25 7.94 90.56 9.72Q92.87 11.51 93.50 14.62L93.50 14.62L88.50 14.62Q88.18 13.40 87.18 12.70Q86.19 12.00 84.82 12.00L84.82 12.00Q83.60 12.00 82.63 12.61Q81.67 13.22 81.13 14.40Q80.59 15.57 80.59 17.18L80.59 17.18Q80.59 18.41 80.90 19.37Q81.22 20.33 81.78 21.01Q82.34 21.70 83.12 22.04Q83.91 22.39 84.82 22.39L84.82 22.39Q85.73 22.39 86.48 22.08Q87.24 21.77 87.76 21.19Q88.29 20.61 88.50 19.77L88.50 19.77L93.50 19.77Q92.87 22.81 90.54 24.62Q88.22 26.42 84.86 26.42ZM100.43 26L95.71 26L95.71 0.80L100.43 0.80L100.43 10.98L100.43 10.98Q101.31 9.58 102.76 8.76Q104.21 7.94 106.14 7.94L106.14 7.94Q108.34 7.94 109.85 8.87Q111.35 9.79 112.12 11.54Q112.89 13.29 112.89 15.88L112.89 15.88L112.89 26L108.20 26L108.20 16.30Q108.20 14.20 107.33 13.07Q106.45 11.93 104.56 11.93L104.56 11.93Q103.41 11.93 102.46 12.49Q101.52 13.05 100.97 14.12Q100.43 15.18 100.43 16.66L100.43 16.66L100.43 26ZM120.31 26L115.59 26L115.59 1.50L120.31 1.50L120.31 26ZM134.28 26L131.09 26Q129.23 26 127.85 25.42Q126.47 24.84 125.70 23.50Q124.93 22.15 124.93 19.80L124.93 19.80L124.93 12.31L121.92 12.31L121.92 8.36L124.93 8.36L125.45 3.56L129.66 3.56L129.66 8.36L134.31 8.36L134.31 12.31L129.66 12.31L129.66 19.88Q129.66 21.06 130.18 21.52Q130.70 21.98 131.97 21.98L131.97 21.98L134.28 21.98L134.28 26Z"></path></g>
        
      </svg>